<?xml version="1.0" standalone="no"?>
<!DOCTYPE svg PUBLIC "-//W3C//DTD SVG 20010904//EN"
 "http://www.w3.org/TR/2001/REC-SVG-20010904/DTD/svg10.dtd">
<svg version="1.0" xmlns="http://www.w3.org/2000/svg"
 width="155.000000pt" height="300.000000pt" viewBox="0 0 155.000000 300.000000"
 preserveAspectRatio="xMidYMid meet">
<metadata>
Created by potrace 1.10, written by Peter Selinger 2001-2011
</metadata>
<g transform="translate(0.000000,300.000000) scale(0.100000,-0.100000)"
fill="#000000" stroke="none">
<path d="M0 0 L5 0 L3 5 L8 3 L8 8 L3 6 L5 11 L0 11 L2 6 L-3 8 L-3 3 L2 5 L0 0 L12 0 L12 11 C16 11 16 5 12 5 L12 0 L13 0 L17 0 L17 11 C21 11 21 5 17 5 L20 0 L17 0 L21 0 L21 11 L-4 11 L-4 0 L0 0z"/>
</g>
</svg>
